<svg width="184" height="138" viewBox="0 0 184 138" fill="none" xmlns="http://www.w3.org/2000/svg">
<g clip-path="url(#clip0_218_14261)">
<path d="M38.5982 86.332C41.4253 87.2432 43.715 88.5984 45.444 90.3974C46.5655 91.6591 47.1262 93.0376 47.1262 94.5563C47.1262 96.5423 46.1216 98.3414 44.1122 99.9302C41.986 101.519 39.5795 102.43 36.9393 102.711C36.5421 102.734 36.1683 102.757 35.7944 102.757C35.5841 102.757 35.3739 102.757 35.1636 102.734C33.6683 102.64 32.2664 102.29 30.958 101.753C29.6496 101.215 28.3879 100.584 27.2196 99.9535L27.1496 99.9068C26.9159 99.7433 26.6589 99.6498 26.4253 99.6498C26.3785 99.6498 26.3084 99.6498 26.2383 99.6965C25.958 99.79 25.8178 100.164 25.7944 100.771V101.028H24.9767V92.3601H25.8178L25.7944 92.6404V92.7105C25.7944 93.061 25.8879 93.4115 26.0748 93.7386C26.2617 94.0657 26.472 94.346 26.729 94.6498C28.7383 97.033 31.0281 98.7386 33.5748 99.7666C34.7197 100.211 35.8879 100.491 37.0561 100.608C37.4767 100.654 37.8972 100.654 38.3412 100.654C39.1589 100.654 39.93 100.584 40.6776 100.421C41.9159 100.14 42.9907 99.6264 43.8786 98.9021C44.673 98.2479 45.1169 97.5704 45.187 96.8227C45.2103 96.7292 45.2103 96.6124 45.2103 96.519C45.2103 96.4255 45.2103 96.3087 45.187 96.1918C45.0702 95.0937 44.673 94.1591 43.9954 93.3647C43.3178 92.5703 42.4767 91.9161 41.472 91.3788C40.4673 90.818 39.4393 90.3507 38.3412 89.9769C37.243 89.603 36.1449 89.3227 35.0468 89.1358C33.715 88.9255 32.2664 88.5283 30.6542 87.9208C30.2103 87.7339 29.6262 87.4535 28.9019 87.0329C28.201 86.6357 27.4767 86.0984 26.7757 85.4208C25.4439 84.1357 24.7897 82.7572 24.7897 81.2853C24.7897 79.1357 26.0514 77.3834 28.5982 76.0516C29.743 75.4909 30.8879 75.0937 32.0561 74.86C33.2243 74.6264 34.2524 74.4862 35.1402 74.4862C35.2103 74.4862 35.2804 74.4628 35.3505 74.4628C37.7804 74.4628 40.0935 75.0469 42.2898 76.2385C42.4533 76.332 42.5935 76.4021 42.7103 76.4021C42.7337 76.4021 42.7571 76.4021 42.7804 76.3787C42.8505 76.332 42.8973 76.2853 42.944 76.2152C43.201 75.818 43.3412 75.4208 43.3412 74.9768L43.3178 74.7198H44.1356V82.8974H43.2711L43.3178 82.6171V82.4769C43.3178 82.1264 43.201 81.7526 42.944 81.3787C42.6402 80.9815 42.3131 80.6544 41.9393 80.3741C39.8599 78.6451 37.8739 77.4535 35.9346 76.846C34.7898 76.4955 33.6449 76.3086 32.5468 76.3086C31.3318 76.3086 30.2103 76.5189 29.1823 76.9395C28.4112 77.2666 27.8271 77.6638 27.4066 78.1311C27.0094 78.6451 26.8224 79.1825 26.8224 79.7899C26.8224 80.8881 27.3131 81.8927 28.2711 82.7806C28.8552 83.2713 29.5094 83.6685 30.2103 83.9956C30.9112 84.3227 31.6355 84.603 32.3598 84.8367L32.5701 84.9068C33.458 85.2105 34.2991 85.4208 35.0935 85.5376C35.9813 85.6544 37.1262 85.9114 38.5982 86.332Z" fill="#0C3462"/>
<path d="M71.2149 97.7105V102.43H48.8317V101.589L49.0887 101.612C49.7196 101.612 50.257 101.379 50.6775 100.958C51.0981 100.538 51.3084 100.024 51.3084 99.4161V77.5937C51.285 76.9862 51.0514 76.4722 50.6308 76.0516C50.2102 75.631 49.6962 75.4208 49.1121 75.4208L48.8317 75.4675V74.6264H71.2149V79.346H70.3972V79.089C70.3972 78.0843 70.0467 77.2198 69.3458 76.5189C68.6448 75.818 67.7804 75.4675 66.7757 75.4441L66.6589 75.4208H57.1729C56.5654 75.4208 56.0514 75.6311 55.6308 76.075C55.2102 76.5189 55 77.0329 55 77.6404V87.6638C55 87.8974 55.1635 88.061 55.4673 88.1077H63.4346C64.4626 88.0843 65.3271 87.7105 66.028 87.0096C66.729 86.3086 67.0794 85.4675 67.0794 84.4628V84.2058H67.8972V92.8273H67.0794V92.5703C67.0794 91.5657 66.729 90.7245 66.028 90.0236C65.3271 89.3227 64.4626 88.9488 63.4346 88.9255H55.4439C55.1402 88.9722 55 89.1358 55 89.3694V99.3928C55 100 55.2102 100.514 55.6308 100.935C56.0514 101.355 56.5654 101.566 57.1729 101.566H66.7757C67.8037 101.542 68.6682 101.168 69.3458 100.491C70.0234 99.8133 70.3972 98.9489 70.3972 97.9208V97.6638L71.2149 97.7105Z" fill="#0C3462"/>
<path d="M97.9674 101.589L98.2478 101.566V102.407H89.9067L89.8833 101.566L90.1637 101.589C90.2571 101.589 90.3739 101.589 90.5141 101.542C90.631 101.519 90.7244 101.449 90.7945 101.355C90.7945 101.309 90.8179 101.262 90.8179 101.215C90.8179 101.052 90.7478 100.841 90.5842 100.584C90.4207 100.327 90.1637 99.9769 89.7898 99.603L89.7197 99.5329L83.0375 92.6638L82.8038 92.4768H82.7805C82.3833 92.1731 82.0328 91.8694 81.7057 91.5423C81.5889 91.4021 81.4487 91.2619 81.3085 91.0983C80.7945 90.5376 80.3739 89.9301 80.0235 89.2993V99.3694C80.0235 99.9769 80.2337 100.491 80.6543 100.935C81.0749 101.379 81.5889 101.589 82.1964 101.589L82.4767 101.566V102.407H73.8552V101.566L74.1356 101.589C74.7431 101.589 75.2571 101.379 75.6777 100.935C76.0982 100.491 76.3085 100 76.3085 99.3927V77.5936C76.3085 76.9862 76.0982 76.4721 75.6777 76.0516C75.2571 75.631 74.7431 75.4207 74.1356 75.4207L73.8552 75.4441V74.603H88.7384C88.8319 74.603 88.9487 74.603 89.0422 74.6263H89.3459L89.9768 74.6731L90.187 74.7198C90.5141 74.7665 90.8412 74.8366 91.145 74.9067C92.8973 75.3506 94.4394 76.2151 95.7244 77.5002C96.6824 78.4815 97.43 79.5796 97.8973 80.7946C98.388 82.0095 98.6216 83.2478 98.6216 84.5095C98.6216 85.7712 98.388 87.0329 97.8973 88.2479C97.4067 89.4628 96.6824 90.5609 95.7244 91.5423C94.4394 92.8039 92.8973 93.6684 91.145 94.1357C90.3506 94.346 89.5328 94.4395 88.6917 94.4395H88.645L93.1543 99.0656L93.2244 99.1591L93.2478 99.1825C93.9254 99.86 94.6964 100.421 95.6076 100.865C96.5422 101.355 97.3132 101.589 97.9674 101.589ZM80.0235 77.5936V87.2432C80.4674 88.6684 81.2151 89.9067 82.2665 90.9581L82.5468 91.2385C84.1823 92.7105 86.1216 93.5049 88.3179 93.6451H88.7151C91.145 93.6451 93.2945 92.7572 95.1637 90.9581C96.0282 90.0236 96.4721 88.832 96.4721 87.3834C96.4721 86.0983 96.145 84.7432 95.4908 83.2946C94.8366 81.846 93.8786 80.4675 92.6169 79.1824C91.6824 78.2712 90.6777 77.5469 89.5796 76.9628C88.4814 76.3787 87.3833 75.9581 86.3085 75.6777C86.1216 75.631 85.9113 75.5843 85.7244 75.5375C85.3038 75.4441 84.9067 75.3974 84.4861 75.374H82.2197C81.6122 75.374 81.0982 75.5843 80.6777 76.0048C80.2571 76.4254 80.0235 76.9862 80.0235 77.5936Z" fill="#0C3462"/>
<path d="M125.981 97.7106L125.818 97.8975C124.463 99.4162 122.897 100.608 121.051 101.426C119.229 102.243 117.29 102.664 115.28 102.664C113.411 102.664 111.612 102.313 109.93 101.612C108.248 100.911 106.729 99.8835 105.397 98.575C104.089 97.2433 103.061 95.7246 102.36 94.0423C101.659 92.3601 101.308 90.561 101.308 88.6918C101.308 86.8227 101.659 85.0236 102.36 83.3414C103.061 81.6591 104.089 80.1404 105.397 78.8086C106.729 77.5002 108.248 76.4722 109.93 75.7713C111.612 75.0703 113.411 74.7199 115.28 74.7199C117.477 74.7199 119.556 75.2105 121.519 76.1685C121.659 76.2385 121.823 76.2619 121.986 76.2619C122.383 76.2619 122.687 76.075 122.897 75.7012C123.014 75.3974 123.084 75.0937 123.084 74.7666L123.061 74.4862H123.879V83.0376H123.061L123.084 82.7573C123.084 82.1731 122.874 81.6591 122.453 81.2152L122.407 81.1685C121.869 80.6544 121.309 80.1872 120.748 79.7432C118.014 77.7806 115.257 76.8227 112.477 76.8227C109.883 76.8227 107.71 77.6638 105.981 79.346C104.299 81.0984 103.458 83.2479 103.458 85.818C103.458 86.2853 103.481 86.7526 103.528 87.2199C103.949 90.4675 105.444 93.3881 107.991 95.9816C109.439 97.4302 111.075 98.5517 112.827 99.3461C114.58 100.14 116.379 100.538 118.154 100.538C120.748 100.538 122.897 99.6965 124.626 98.0143C124.813 97.8274 125.023 97.6171 125.21 97.3835L125.374 97.1965L125.981 97.7106Z" fill="#0C3462"/>
<path d="M150.281 97.7105V102.43H127.897V101.589L128.154 101.612C128.785 101.612 129.323 101.379 129.743 100.958C130.164 100.538 130.374 100.024 130.374 99.4161V77.5937C130.351 76.9862 130.117 76.4722 129.696 76.0516C129.276 75.631 128.762 75.4208 128.178 75.4208L127.897 75.4675V74.6264H150.281V79.346H149.463V79.089C149.463 78.0843 149.112 77.2198 148.411 76.5189C147.71 75.818 146.846 75.4675 145.841 75.4441L145.724 75.4208H136.238C135.631 75.4208 135.117 75.6311 134.696 76.075C134.276 76.5189 134.066 77.0329 134.066 77.6404V87.6638C134.066 87.8974 134.229 88.061 134.533 88.1077H142.5C143.528 88.0843 144.393 87.7105 145.094 87.0096C145.795 86.3086 146.145 85.4675 146.145 84.4628V84.2058H146.963V92.8273H146.145V92.5703C146.145 91.5657 145.795 90.7245 145.094 90.0236C144.393 89.3227 143.528 88.9488 142.5 88.9255H134.51C134.206 88.9722 134.066 89.1358 134.066 89.3694V99.3928C134.066 100 134.276 100.514 134.696 100.935C135.117 101.355 135.631 101.566 136.238 101.566H145.841C146.869 101.542 147.71 101.168 148.411 100.491C149.112 99.8133 149.463 98.9489 149.463 97.9208V97.6638L150.281 97.7105Z" fill="#0C3462"/>
<path d="M4.13552 113.411C5.49067 112.08 7.00936 111.052 8.71497 110.351C10.4206 109.65 12.2197 109.276 14.1122 109.276C16.0047 109.276 17.7804 109.626 19.486 110.351C21.1916 111.052 22.7337 112.08 24.0655 113.411C25.3973 114.767 26.4253 116.285 27.1262 117.991C27.8272 119.697 28.201 121.496 28.201 123.365C28.201 125.234 27.8505 127.056 27.1262 128.762C26.4253 130.468 25.3973 132.01 24.0655 133.341C22.7103 134.673 21.1916 135.701 19.486 136.402C17.7804 137.103 15.9813 137.477 14.1122 137.477C12.243 137.477 10.4206 137.126 8.71497 136.402C7.00936 135.678 5.4673 134.673 4.13552 133.341C2.80374 132.01 1.7757 130.491 1.07477 128.762C0.373833 127.056 0 125.257 0 123.365C0 121.472 0.350468 119.697 1.07477 117.991C1.7757 116.285 2.80374 114.743 4.13552 113.411ZM21.4954 116.005C20.0234 114.556 18.3879 113.411 16.6122 112.617C14.8365 111.823 13.0374 111.426 11.2383 111.426C8.62151 111.426 6.44861 112.267 4.69627 113.972C2.99066 115.748 2.12617 117.921 2.12617 120.491C2.12617 120.958 2.14954 121.426 2.21963 121.916C2.64019 125.187 4.13552 128.131 6.70562 130.748C8.17759 132.197 9.8131 133.341 11.5888 134.136C13.3645 134.93 15.1636 135.327 16.9627 135.327C19.5795 135.327 21.7757 134.463 23.5281 132.757C24.3926 131.893 25.0234 130.888 25.444 129.79C25.8645 128.669 26.0748 127.477 26.0748 126.239C26.0748 124.51 25.6776 122.757 24.9066 120.982C24.1356 119.183 22.9907 117.524 21.4954 116.005Z" fill="#0C3462"/>
<path d="M55.3974 132.524L55.2338 132.711C53.8787 134.229 52.2899 135.421 50.4675 136.239C48.645 137.056 46.7058 137.477 44.6964 137.477C42.8273 137.477 41.0282 137.127 39.3459 136.426C37.6637 135.725 36.145 134.72 34.8132 133.388C33.5048 132.056 32.4768 130.538 31.7758 128.855C31.0749 127.173 30.7244 125.374 30.7244 123.505C30.7244 121.636 31.0749 119.837 31.7758 118.155C32.4768 116.472 33.5048 114.954 34.8132 113.622C36.145 112.313 37.6637 111.285 39.3459 110.584C41.0282 109.883 42.8273 109.533 44.6964 109.533C46.8927 109.533 48.9721 110.024 50.9114 110.982C51.0516 111.052 51.2151 111.075 51.3787 111.075C51.7759 111.075 52.0796 110.888 52.2899 110.514C52.4301 110.211 52.4768 109.907 52.4768 109.58L52.4534 109.299H53.2712V117.851H52.4534L52.4768 117.57C52.4768 116.986 52.2665 116.472 51.846 116.028L51.7992 115.982C51.2619 115.468 50.7245 115 50.1404 114.556C47.4067 112.594 44.6497 111.636 41.8693 111.636C39.2758 111.636 37.1029 112.477 35.374 114.159C33.6917 115.912 32.8506 118.061 32.8506 120.631C32.8506 121.098 32.874 121.566 32.9207 122.033C33.3413 125.281 34.8366 128.201 37.3833 130.795C38.8319 132.243 40.4674 133.365 42.2198 134.159C43.9955 134.954 45.7478 135.351 47.5469 135.351C50.1404 135.351 52.2899 134.51 54.0189 132.827C54.2058 132.641 54.4161 132.43 54.603 132.197L54.7665 132.01L55.3974 132.524Z" fill="#0C3462"/>
<path d="M79.6965 132.524V137.243H57.3133V136.402L57.5703 136.426C58.2011 136.426 58.7385 136.192 59.1591 135.771C59.5797 135.351 59.7899 134.837 59.7899 134.229V112.407C59.7666 111.799 59.5329 111.285 59.1124 110.865C58.6918 110.444 58.1778 110.234 57.5937 110.234L57.3133 110.281V109.44H79.6965V114.159H78.8788V113.902C78.8788 112.897 78.5283 112.033 77.8274 111.332C77.1264 110.631 76.2619 110.281 75.2573 110.257L75.1404 110.234H65.6544C65.047 110.234 64.5329 110.444 64.1124 110.888C63.6918 111.332 63.4815 111.846 63.4815 112.454V122.477C63.4815 122.711 63.6451 122.874 63.9488 122.921H71.9161C72.9442 122.897 73.8087 122.524 74.5096 121.823C75.2105 121.122 75.561 120.257 75.561 119.276V119.019H76.3788V127.64H75.561V127.383C75.561 126.379 75.2105 125.538 74.5096 124.837C73.8087 124.136 72.9442 123.762 71.9161 123.739H63.9255C63.6217 123.785 63.4815 123.949 63.4815 124.183V134.206C63.4815 134.813 63.6918 135.327 64.1124 135.748C64.5329 136.169 65.047 136.379 65.6544 136.379H75.2573C76.2853 136.355 77.1264 135.982 77.8274 135.281C78.5283 134.58 78.8788 133.739 78.8788 132.711V132.454L79.6965 132.524Z" fill="#0C3462"/>
<path d="M90.0003 136.449V137.267H81.4722C81.4722 137.267 81.4489 137.267 81.4489 137.243V136.472C81.4489 136.449 81.4489 136.449 81.4722 136.449H81.7526C82.804 136.402 83.832 136.028 84.8367 135.328C85.818 134.627 86.5657 133.739 87.0096 132.711L94.8134 113.715C95.0003 113.225 95.0937 112.757 95.0937 112.337C95.0937 111.753 94.9068 111.239 94.533 110.818C93.8788 110.374 93.2479 110.141 92.6638 110.141H92.3835V109.323H98.3648L98.3881 109.346L108.575 134.136C108.855 134.79 109.299 135.351 109.93 135.771C110.561 136.192 111.169 136.426 111.799 136.426L112.08 136.402V137.243H103.552L103.528 137.22V136.449C103.528 136.426 103.528 136.426 103.552 136.426H103.832C104.346 136.426 104.697 136.262 104.907 135.912C105.024 135.725 105.094 135.491 105.094 135.187C105.094 134.884 105.024 134.627 104.907 134.299L104.883 134.276L101.519 126.075C100.748 125.958 99.9536 125.888 99.1592 125.888C96.7293 125.888 94.533 126.472 92.5236 127.617C90.5143 128.762 89.019 130.328 88.0143 132.313C88.0143 132.337 87.9442 132.524 87.804 132.874C87.5937 133.412 87.5003 133.879 87.5003 134.323C87.5003 135.071 87.7806 135.631 88.318 136.028L88.3414 136.052C88.7152 136.285 89.1825 136.426 89.7199 136.426L90.0003 136.449ZM95.5143 114.066L89.276 129.206C89.276 129.206 89.276 129.229 89.2993 129.229C91.0283 127.384 93.2012 126.145 95.818 125.491C95.9115 125.468 96.0283 125.444 96.1685 125.421C97.0564 125.234 97.9442 125.117 98.8554 125.117H100.748C100.888 125.094 100.958 125.024 100.958 124.907V124.86L96.0984 113.014L96.0751 112.991C95.8648 113.295 95.7012 113.622 95.561 113.949L95.5143 114.066Z" fill="#0C3462"/>
<path d="M141.215 110.281H140.958C139.954 110.281 139.089 110.631 138.388 111.332C137.687 112.033 137.313 112.898 137.29 113.902V132.781C137.337 133.809 137.687 134.673 138.388 135.374C139.089 136.075 139.93 136.426 140.958 136.426H141.215V137.22H135.281L134.603 136.309L117.991 113.669C117.968 113.739 117.968 113.809 117.968 113.879V132.781C118.014 133.809 118.365 134.673 119.066 135.374C119.767 136.075 120.608 136.426 121.636 136.426H121.893V137.22H113.271V136.449H113.528C114.533 136.449 115.398 136.098 116.098 135.398C116.799 134.697 117.173 133.832 117.197 132.804V113.902C117.15 112.874 116.799 112.033 116.098 111.332C115.398 110.631 114.556 110.281 113.528 110.281H113.271V109.463H119.253L136.519 132.991C136.519 132.921 136.542 132.874 136.542 132.804V113.902C136.496 112.874 136.145 112.033 135.444 111.332C134.743 110.631 133.902 110.281 132.874 110.281H132.617V109.463H141.239L141.215 110.281Z" fill="#0C3462"/>
<path d="M166.379 110.327V109.486H175.07V110.327L174.79 110.304C174.159 110.327 173.622 110.538 173.201 110.958C172.781 111.379 172.57 111.893 172.57 112.5V122.827C172.57 126.659 171.729 129.813 170.07 132.337C168.482 134.697 166.285 136.285 163.505 137.103C162.711 137.313 162.01 137.43 161.402 137.43C159.743 137.43 158.108 137.15 156.542 136.566C155.024 136.005 153.645 135.211 152.384 134.206C149.813 132.056 148.178 129.369 147.477 126.145C147.267 125.164 147.173 124.183 147.173 123.201V114.626C147.15 113.411 146.776 112.383 146.075 111.542C145.374 110.701 144.51 110.281 143.505 110.281H143.248V109.44H151.94V110.281H151.683C150.678 110.281 149.813 110.701 149.112 111.519C148.412 112.337 148.038 113.365 147.991 114.603V118.295C148.038 120.164 148.528 122.15 149.486 124.253C150.444 126.355 151.659 128.201 153.178 129.743C154.697 131.355 156.262 132.664 157.851 133.622C159.44 134.58 161.472 135.141 163.972 135.257H164.159C165.491 135.211 166.613 134.743 167.524 133.832C168.435 132.921 168.879 131.799 168.879 130.468V112.454C168.879 112.103 168.785 111.753 168.599 111.425C168.131 110.654 167.477 110.281 166.659 110.281L166.379 110.327Z" fill="#0C3462"/>
<path d="M81.8227 24.1823C80.047 22.3131 78.248 20.8879 75.9349 20.7945C73.7386 20.701 72.1031 21.7991 71.8694 21.9627C70.2339 23.1075 69.6031 24.7197 69.2993 25.5141C68.4349 27.7104 68.7152 29.6496 68.9255 31.0515C69.2526 33.2244 69.9769 34.8132 70.3274 35.5141C73.8788 42.7104 79.1592 44.4394 80.5844 50.3506C80.8648 51.5655 80.9583 52.8272 80.8648 54.0889C80.8414 54.5095 80.7713 54.9067 80.7246 55.3039C80.7012 55.4207 80.7012 55.5142 80.7713 55.5842C80.8181 55.631 80.8882 55.631 80.9115 55.631C81.5657 55.6543 82.1966 55.7945 82.8508 55.8179C83.3882 55.8179 83.2012 55.8413 83.8087 55.8413C87.1966 55.8646 88.9022 55.8646 89.6031 55.5842C91.9629 54.6497 92.0564 47.43 90.8414 41.3085C90.7947 41.3319 88.8788 31.6356 81.8227 24.1823Z" fill="#FF7061"/>
<path d="M98.4583 31.7992C98.0845 28.5515 97.1966 20.2103 101.496 12.1963C101.846 11.5421 102.22 10.9113 102.617 10.2804C103.248 9.32247 103.926 8.41125 104.673 7.5234C105.117 7.00938 105.561 6.51872 106.028 6.02807C106.285 5.77106 106.542 5.51405 106.799 5.2804C106.916 5.16358 107.056 5.04676 107.173 4.92994C107.267 4.83648 107.267 4.71966 107.197 4.60283C107.15 4.53274 107.033 4.48601 106.963 4.43928C106.799 4.32246 106.636 4.20564 106.496 4.11218C106.169 3.9019 105.841 3.69162 105.514 3.5047C104.556 2.94395 103.528 2.47666 102.477 2.07946C101.472 1.70563 100.421 1.44862 99.3461 1.2617C98.3181 1.09815 97.2667 1.00469 96.2153 1.02806C95.1872 1.05142 94.1592 1.14488 93.1545 1.35516C92.1732 1.54208 91.1919 1.82245 90.2573 2.19629C89.3228 2.57012 88.4349 3.01404 87.5704 3.55143C86.7293 4.08881 85.9349 4.69629 85.2106 5.37386C84.4863 6.05143 83.8087 6.82246 83.2246 7.64022C80.7713 11.0514 80.2339 14.6262 80.1171 15.9113C80.0237 16.729 79.8134 17.6636 80.1639 18.7384C80.2339 18.9487 80.3975 19.3926 81.0751 20.3505C82.033 21.7524 82.9442 22.687 82.9676 22.687C83.6919 23.4346 88.5517 28.8786 91.1452 36.1683C94.0891 44.4861 92.6172 52.617 92.5003 53.1543C92.3835 53.5983 92.3601 54.0889 92.2667 54.5328C92.22 54.8599 91.9863 55.3973 92.2433 55.6777C92.5003 55.9581 93.0844 55.7945 93.4115 55.7712C93.9489 55.7244 94.4863 55.6777 95.0237 55.6076C95.7246 55.5375 96.4489 55.4674 97.1499 55.374C97.9209 55.2805 98.3648 55.117 98.7153 54.3927C99.0891 53.5983 99.4162 52.7805 99.6732 51.9627C100.748 48.5749 100.608 45.5141 100.047 41.145C99.3228 35.5141 98.8321 35.0001 98.4583 31.7992Z" fill="#E95539"/>
<path d="M115.888 22.3599C116.005 22.173 116.075 22.0328 116.122 21.916C117.127 19.1356 112.944 10.8178 112.944 10.8178C111.636 8.20099 110.772 6.70566 109.533 6.65893C108.996 6.63556 108.552 6.89257 108.295 7.07949C104.51 9.71968 101.823 18.6216 101.823 18.6216C101.823 18.6216 99.7434 25.5141 100.421 31.9394C100.444 32.2665 100.608 33.5281 101.122 33.6216C101.706 33.7384 102.22 32.3132 104.206 29.93C105.795 28.0375 107.29 26.8693 108.225 26.1683C109.206 25.4207 110.374 24.5795 111.94 23.9253C112.477 23.715 112.757 23.5982 112.968 23.5048C114.51 23.0141 115.374 23.0842 115.888 22.3599Z" fill="#E95539"/>
<path d="M78.2714 52.4534C77.3369 44.6496 70.2107 42.1963 67.7574 34.93C67.6639 34.673 67.5938 34.4159 67.5238 34.1823C67.3836 33.6215 67.2434 33.0608 67.1733 32.5001C67.0565 31.8225 67.0097 31.1449 66.9864 30.4673C66.963 29.6729 66.9864 28.8785 67.0798 28.0842C67.1266 27.6402 67.1966 27.1963 67.2667 26.7524C67.3135 26.5187 67.3602 26.2851 67.3836 26.0514C67.4303 25.8412 67.5004 25.6075 67.477 25.3739C67.477 25.3505 67.477 25.3505 67.477 25.3271C67.477 25.3038 67.4537 25.3038 67.4303 25.3038C67.3368 25.3271 67.2667 25.4206 67.1966 25.4907C66.9163 25.7711 66.6593 26.0514 66.4023 26.3552C66.0752 26.729 65.748 27.1262 65.4677 27.5468C65.1172 28.0374 64.7901 28.5281 64.4864 29.0421C64.1359 29.6262 63.8322 30.2337 63.5751 30.8645C63.2714 31.5655 63.0144 32.2664 62.8275 32.9907C62.6172 33.7851 62.4536 34.6029 62.3602 35.4206C61.7293 40.8178 63.949 44.8599 64.8602 46.3319C65.4209 47.2431 66.0284 48.1076 66.706 48.9253C67.3368 49.6963 68.0378 50.3973 68.7854 51.0515C69.4864 51.6823 70.2574 52.2431 71.0518 52.7571C71.8462 53.2711 72.6406 53.6917 73.4817 54.0889C74.3228 54.4627 75.1873 54.7898 76.0518 55.0702C76.4256 55.187 76.7995 55.2805 77.1733 55.3973C77.3602 55.444 77.5471 55.4908 77.7341 55.5375C77.8509 55.5608 78.178 55.701 78.2948 55.6309C78.4116 55.5609 78.3649 55.187 78.3883 55.0468C78.4116 54.8132 78.4116 54.5795 78.4116 54.3459C78.4116 53.7618 78.3883 53.1777 78.3415 52.6169C78.2948 52.5702 78.2714 52.5001 78.2714 52.4534Z" fill="#FF7061"/>
<path d="M116.402 28.4114C116.402 27.7805 116.379 27.173 116.356 26.5422C116.356 26.2385 116.332 25.9114 116.309 25.6076C116.309 25.4441 116.332 25.117 116.192 24.9768L116.169 24.9534C116.005 24.86 115.608 25.0469 115.421 25.0936C115.164 25.1637 114.907 25.2572 114.65 25.3273C114.159 25.4908 113.669 25.7011 113.178 25.9114C111.332 26.7525 109.627 27.8974 108.108 29.2525C106.589 30.6076 105.234 32.1964 104.136 33.9254C103.482 34.9301 103.131 35.4675 102.804 36.3086C102.01 38.2946 102.103 40.2572 102.337 44.0656C102.454 46.075 102.594 47.0095 102.5 48.8553C102.454 49.8367 102.313 50.8413 102.103 51.7993C101.893 52.6871 101.659 53.6918 101.215 54.5096C101.192 54.5563 101.169 54.603 101.145 54.6497C101.145 54.6497 101.122 54.7432 101.169 54.86C101.332 55.2806 112.056 53.575 112.056 53.575C112.898 53.4348 114.206 53.2479 115 52.2198C115.561 51.4955 115.842 50.6544 115.818 49.7432C115.795 48.6918 115.771 47.6404 115.795 46.6123C115.818 44.2759 115.958 41.9394 116.075 39.6264C116.192 37.1497 116.332 34.6731 116.402 32.1731C116.402 30.9114 116.426 29.6731 116.402 28.4114ZM112.033 44.8834C111.683 46.1918 110.328 46.9628 109.019 46.6123C107.711 46.2619 106.94 44.9067 107.29 43.5983C107.641 42.2899 108.996 41.5189 110.304 41.8693C111.636 42.2198 112.407 43.575 112.033 44.8834Z" fill="#FF7061"/>
<path d="M73.9489 1.05143C74.2059 1.23835 74.6732 1.63554 74.8834 1.84582C75.1872 2.17293 75.6077 2.82714 75.8414 3.22433C77.6405 6.21499 77.3601 12.1029 77.0096 15.5374C76.9629 15.9814 76.9162 16.7991 76.8227 17.2197C76.7526 17.4767 76.332 17.5001 76.0984 17.5702C74.533 18.0141 72.7806 18.4113 71.1685 18.6683C68.0844 19.1823 64.0423 19.6496 61.3086 17.8272C58.1077 15.7244 57.7105 11.1449 60.5143 8.52808C61.6358 7.47668 63.1311 6.93929 64.6498 6.93929C64.6731 6.58883 64.5797 6.21499 64.603 5.84116C64.6731 1.16825 70.1171 -1.65886 73.9489 1.05143Z" fill="#FF7061"/>
</g>
<defs>
<clipPath id="clip0_218_14261">
<rect width="175.07" height="137.5" fill="white"/>
</clipPath>
</defs>
</svg>
