<svg width="71" height="24" viewBox="0 0 71 24" fill="none" xmlns="http://www.w3.org/2000/svg">
<path fill-rule="evenodd" clip-rule="evenodd" d="M11.3842 16.2578H9.11243L7.40888 10.1919C7.32802 9.91286 7.15634 9.66618 6.90379 9.54992C6.27354 9.25774 5.57905 9.02522 4.82143 8.90794V8.67441H8.48107C8.98616 8.67441 9.36497 9.02522 9.42811 9.43264L10.312 13.8082L12.5827 8.67441H14.7913L11.3842 16.2578ZM16.054 16.2578H13.9085L15.6752 8.67441H17.8207L16.054 16.2578ZM20.5965 10.7757C20.6596 10.3673 21.0384 10.1337 21.4804 10.1337C22.1749 10.0751 22.9314 10.1924 23.5627 10.4835L23.9415 8.85081C23.3102 8.61727 22.6157 8.5 21.9854 8.5C19.9031 8.5 18.3878 9.55041 18.3878 11.0082C18.3878 12.1173 19.4611 12.6996 20.2188 13.0504C21.0384 13.4002 21.3541 13.6338 21.291 13.9836C21.291 14.5082 20.6596 14.7418 20.0294 14.7418C19.2717 14.7418 18.5141 14.5669 17.8207 14.2747L17.4419 15.9085C18.1995 16.1996 19.0192 16.3169 19.7768 16.3169C22.1117 16.3745 23.5627 15.3251 23.5627 13.75C23.5627 11.7665 20.5965 11.6502 20.5965 10.7757ZM31.0714 16.2578L29.3679 8.67441H27.5381C27.1592 8.67441 26.7804 8.90794 26.6542 9.25774L23.4996 16.2578H25.7082L26.1491 15.1497H28.8628L29.1153 16.2578H31.0714ZM27.8537 10.7169L28.484 13.575H26.7173L27.8537 10.7169Z" fill="#172B85"/>
<path d="M56.4978 5C60.5759 5 63.8824 8.09009 63.8826 11.9023C63.8826 15.7148 60.576 18.8057 56.4978 18.8057C54.6695 18.8057 52.9974 18.1832 51.7078 17.1543C50.4183 18.1829 48.7467 18.8056 46.9187 18.8057C42.8405 18.8057 39.5339 15.7148 39.5339 11.9023C39.5341 8.09009 42.8406 5 46.9187 5C48.7465 5.00011 50.4183 5.62189 51.7078 6.65039C52.9973 5.62165 54.6696 5.00001 56.4978 5Z" fill="#ED0006"/>
<path d="M56.4981 5C60.5761 5.00012 63.8817 8.09016 63.8819 11.9023C63.8819 15.7147 60.5762 18.8055 56.4981 18.8057C54.6698 18.8057 52.9976 18.1831 51.708 17.1543C53.2951 15.8882 54.3028 14.0057 54.3028 11.9023C54.3027 9.79902 53.2952 7.91645 51.708 6.65039C52.9976 5.62172 54.67 5 56.4981 5Z" fill="#F9A000"/>
<path d="M51.7074 6.64844C53.2948 7.9145 54.302 9.79689 54.3021 11.9004C54.3021 14.0039 53.2947 15.8862 51.7074 17.1523C50.1206 15.8862 49.1136 14.0035 49.1136 11.9004C49.1137 9.79726 50.1205 7.9145 51.7074 6.64844Z" fill="#FF5E00"/>
</svg>
