<svg width="68" height="24" viewBox="0 0 68 24" fill="none" xmlns="http://www.w3.org/2000/svg">
<g clip-path="url(#clip0_200_12481)">
<path d="M41.5229 8.98632C41.2124 8.98632 40.9619 8.73585 40.9619 8.42539V5.94531H40.7573C39.4732 5.94531 38.9969 6.15698 38.9969 7.32823V10.0658C38.9969 10.0658 38.9969 10.0764 38.9969 10.0835V10.6832C38.9969 10.7044 38.9969 10.722 38.9969 10.7432V14.5674C38.9969 15.0331 38.9052 15.407 38.7217 15.6963C38.3725 16.2361 37.6775 16.4795 36.5697 16.483C35.462 16.483 34.767 16.2361 34.4178 15.6963C34.2308 15.407 34.1426 15.0366 34.1426 14.5674V10.7432C34.1426 10.722 34.1426 10.7009 34.1426 10.6832V10.0835C34.1426 10.0835 34.1426 10.0729 34.1426 10.0658V7.32823C34.1426 6.15698 33.6663 5.94531 32.3822 5.94531H31.9765C30.6923 5.94531 30.2161 6.15698 30.2161 7.32823V14.5674C30.2161 15.7316 30.4771 16.7194 30.9852 17.5132C31.9659 19.0548 33.8639 19.8733 36.5627 19.8733C36.5627 19.8733 36.5697 19.8733 36.5733 19.8733C36.5768 19.8733 36.5803 19.8733 36.5839 19.8733C39.2827 19.8733 41.1807 19.0513 42.1614 17.5132C42.6694 16.7194 42.9305 15.7316 42.9305 14.5674V8.98985H41.5334L41.5229 8.98632Z" fill="#002124"/>
<path d="M47.4567 2.01562H45.3435C45.1136 2.01562 44.9272 2.202 44.9272 2.43191V4.56979C44.9272 4.7997 45.1136 4.98608 45.3435 4.98608H47.4567C47.6866 4.98608 47.873 4.7997 47.873 4.56979V2.43191C47.873 2.202 47.6866 2.01562 47.4567 2.01562Z" fill="#002124"/>
<path d="M44.645 0H43.2092C43.0533 0 42.9269 0.126358 42.9269 0.282228V1.7357C42.9269 1.89158 43.0533 2.01793 43.2092 2.01793H44.645C44.8009 2.01793 44.9272 1.89158 44.9272 1.7357V0.282228C44.9272 0.126358 44.8009 0 44.645 0Z" fill="#002124"/>
<path d="M5.58107 5.94531H2.50831C0.867858 5.94531 0.134064 6.67558 0.134064 8.31956V18.8608C0.134064 19.4958 0.338679 19.6969 0.970165 19.6969H1.17831C1.81332 19.6969 2.01441 19.4923 2.01441 18.8608V14.7579H5.57754C8.7385 14.7579 10.2131 13.3573 10.2131 10.3516C10.2131 7.34587 8.74203 5.94531 5.57754 5.94531H5.58107ZM8.3328 10.3516C8.3328 12.0697 7.89535 13.001 5.58107 13.001H2.01794V8.56651C2.01794 7.95266 2.24725 7.72335 2.8611 7.72335H5.58107C7.32383 7.72335 8.3328 8.15375 8.3328 10.3516Z" fill="#002124"/>
<path d="M14.1714 8.96875C12.9543 8.96875 12.1923 9.12045 11.903 9.18042C11.3914 9.29331 11.1762 9.4309 11.1762 10.0165V10.1823C11.1762 10.4116 11.2115 10.5704 11.2821 10.6798C11.3667 10.8103 11.5008 10.8738 11.6878 10.8738C11.776 10.8738 11.8818 10.8597 12.0053 10.8279C12.2981 10.7538 13.233 10.6021 14.2561 10.6021C16.0941 10.6021 16.842 11.1102 16.842 12.359V13.4738H14.5242C11.5467 13.4738 10.1602 14.4793 10.1602 16.6348C10.1602 18.7903 11.5925 19.8804 14.1926 19.8804C17.283 19.8804 18.6623 18.8291 18.6623 16.469V12.359C18.6623 10.0765 17.1948 8.96875 14.1714 8.96875ZM16.842 14.959V16.4055C16.842 17.5838 16.4045 18.2646 14.1714 18.2646C12.6967 18.2646 11.9806 17.7319 11.9806 16.6313C11.9806 15.4283 12.7003 14.959 14.5453 14.959H16.842Z" fill="#002124"/>
<path d="M28.8473 9.45651C28.7168 9.2907 28.4663 9.26953 28.2193 9.26953H28.0324C27.4114 9.26953 27.168 9.46004 27.034 10.0562L25.3124 17.2143C25.0972 18.0927 24.7938 18.255 24.2787 18.255C23.6472 18.255 23.3932 18.1033 23.1392 17.2107L21.1883 10.0527C21.026 9.45298 20.7897 9.26953 20.1688 9.26953H20.003C19.7525 9.26953 19.502 9.29423 19.375 9.46004C19.248 9.62584 19.2903 9.87632 19.3574 10.1233L21.3294 17.3448C21.6999 18.7277 22.1373 19.8707 23.7813 19.8707C24.0882 19.8707 24.3704 19.8284 24.6068 19.7473C24.1094 21.3136 23.6014 22.0051 22.1091 22.1568C21.8057 22.1815 21.6081 22.2238 21.4988 22.372C21.3859 22.5237 21.4106 22.7424 21.4529 22.94L21.4952 23.1234C21.5834 23.5503 21.7351 23.8184 22.2184 23.8184C22.2678 23.8184 22.3243 23.8184 22.3807 23.8114C24.6103 23.6667 25.8063 22.4637 26.5083 19.6661L28.8967 10.1162C28.9531 9.87279 28.9884 9.62232 28.8579 9.45651H28.8473Z" fill="#002124"/>
<path d="M44.3663 4.98828H41.5229C41.2124 4.98828 40.9619 5.23876 40.9619 5.54921V5.94433H41.1595C42.4436 5.94433 42.9199 6.156 42.9199 7.32725V8.98887H44.3663C44.6768 8.98887 44.9273 8.73839 44.9273 8.42794V5.54921C44.9273 5.23876 44.6768 4.98828 44.3663 4.98828Z" fill="#002124"/>
<path d="M61.7763 12.9766C61.2965 12.9766 60.9719 13.0718 60.8061 13.2588C60.6474 13.4422 60.5662 13.7492 60.5662 14.1831V15.3826C60.5662 15.8165 60.6474 16.1269 60.8061 16.3069C60.9719 16.4938 61.2965 16.5891 61.7763 16.5891C62.2561 16.5891 62.5842 16.4938 62.7464 16.3069C62.9052 16.1234 62.9863 15.8165 62.9863 15.3826V14.1831C62.9863 13.7492 62.9052 13.4387 62.7464 13.2588C62.5806 13.0718 62.2561 12.9766 61.7763 12.9766Z" fill="#002124"/>
<path d="M56.9043 13.0547H55.8742C55.7013 13.0547 55.6166 13.1394 55.6166 13.3122V14.6422H56.9043C57.1724 14.6422 57.3629 14.5787 57.4793 14.4552C57.5922 14.3282 57.6522 14.1307 57.6522 13.8555C57.6522 13.5803 57.5922 13.3793 57.4758 13.2522C57.3594 13.1252 57.1689 13.0582 56.9043 13.0582V13.0547Z" fill="#002124"/>
<path d="M63.0816 9.85938H50.3354C47.6155 9.85938 45.4106 12.0643 45.4106 14.7843C45.4106 17.5042 47.6155 19.7091 50.3354 19.7091H63.0816C65.8016 19.7091 68.0065 17.5042 68.0065 14.7843C68.0065 12.0643 65.8016 9.85938 63.0816 9.85938ZM53.5881 16.3683C53.5881 16.7669 53.5246 17.0597 53.3941 17.2432C53.2671 17.4266 53.0307 17.5466 52.6885 17.603C52.4698 17.6418 52.2299 17.663 51.9688 17.663C51.0128 17.663 50.3284 17.4972 49.9121 17.1656C49.4888 16.8269 49.2771 16.2589 49.2771 15.4581V14.0857C49.2771 13.4119 49.4993 12.8792 49.9474 12.4876C50.3919 12.096 51.0516 11.902 51.9265 11.902C52.3146 11.902 52.685 11.9584 53.0413 12.0749C53.2283 12.1384 53.3553 12.2089 53.4153 12.2901C53.4752 12.3712 53.5035 12.5053 53.5035 12.6922V12.7593C53.5035 12.9604 53.4717 13.0874 53.4047 13.1438C53.3376 13.2003 53.2142 13.2003 53.0307 13.1438C52.6709 13.0309 52.3146 12.9709 51.9583 12.9709C51.4044 12.9709 51.0163 13.0627 50.7905 13.2426C50.5647 13.4225 50.4554 13.733 50.4554 14.1739V15.5463C50.4554 15.885 50.5612 16.1425 50.7729 16.3189C50.9916 16.5023 51.3903 16.5941 51.9724 16.5941C52.0641 16.5941 52.1735 16.587 52.2969 16.5764C52.4451 16.5658 52.5192 16.4706 52.5192 16.2942V14.8866C52.5192 14.6925 52.5545 14.562 52.6215 14.4914C52.6885 14.4209 52.8226 14.3891 53.0166 14.3891H53.0836C53.2777 14.3891 53.4082 14.4244 53.4788 14.4914C53.5493 14.5585 53.5811 14.6925 53.5811 14.8866V16.3683H53.5881ZM56.9078 15.7156H55.6202V17.0633C55.6202 17.2573 55.5884 17.3878 55.5214 17.4584C55.4544 17.5254 55.3238 17.5607 55.1227 17.5607H54.9675C54.7664 17.5607 54.6359 17.5254 54.5689 17.4584C54.5018 17.3913 54.4701 17.2573 54.4701 17.0633V13.0168C54.4701 12.657 54.5512 12.3959 54.7135 12.2336C54.8758 12.0713 55.1368 11.9902 55.4967 11.9902H56.9043C58.1673 11.9902 58.7988 12.6146 58.7988 13.86C58.7988 15.1053 58.1673 15.7191 56.9043 15.7191L56.9078 15.7156ZM64.1435 15.3911C64.1435 16.1284 63.9706 16.6928 63.6213 17.0809C63.2686 17.476 62.6512 17.6736 61.7763 17.6736C60.9014 17.6736 60.2875 17.476 59.9347 17.0809C59.5855 16.6928 59.4126 16.1284 59.4126 15.3911V14.1916C59.4126 13.4543 59.5855 12.8898 59.9347 12.5017C60.2875 12.1066 60.9049 11.9091 61.7763 11.9091C62.6477 11.9091 63.265 12.1066 63.6213 12.5017C63.9706 12.8898 64.1435 13.4543 64.1435 14.1916V15.3911Z" fill="#002124"/>
</g>
<defs>
<clipPath id="clip0_200_12481">
<rect width="68.0029" height="24" fill="white"/>
</clipPath>
</defs>
</svg>
